<svg xmlns="http://www.w3.org/2000/svg" version="1.1" xmlns:xlink="http://www.w3.org/1999/xlink" xmlns:svgjs="http://svgjs.dev/svgjs" width="1000" height="1000" viewBox="0 0 1000 1000"><rect width="1000" height="1000" fill="#000000"></rect><g transform="matrix(0.7,0,0,0.7,150.0000000000001,106.25)"><svg viewBox="0 0 320 360" data-background-color="#046380" preserveAspectRatio="xMidYMid meet" height="1125" width="1000" xmlns="http://www.w3.org/2000/svg" xmlns:xlink="http://www.w3.org/1999/xlink"><g id="tight-bounds" transform="matrix(1,0,0,1,0,0)"><svg viewBox="0 0 320 360" height="360" width="320"><g><svg></svg></g><g><svg viewBox="0 0 320 360" height="360" width="320"><g><path xmlns="http://www.w3.org/2000/svg" d="M20.961 227.22l3.726 4.658-1.863-6.056c-0.466-2.795-3.726 0.466-1.863 1.398M25.153 224.425c1.397 2.329 2.795 4.658 2.795 6.987 0 3.261 2.795 4.658 5.123 5.589-3.261-3.726-5.124-13.974-7.918-12.576M204.017 26.929c7.918 0 15.371-0.932 23.756 0.931 20.495 5.124 37.729 15.371 49.374 29.811l32.606 52.169c1.397 13.042 4.192 27.482 3.726 43.319 3.261 0 2.795-4.658 6.521-5.59-3.726 9.316-5.59 20.961-6.521 34.469-2.329-7.453 0-18.632 0.466-24.687-3.261 5.124-5.124 1.397-5.124-0.932 0.466-3.726-1.397-3.261-2.795-4.658-5.124-4.658-8.384-9.782-12.11-17.7 2.329-6.055 2.795-14.905-4.658-19.563-2.329-1.397-5.124-3.726-6.521-7.453-1.863-5.124-5.124-11.179-4.193-19.097 0.466-2.329-6.987 5.124-11.179 1.863-18.166-12.576-36.332-27.016-58.224-39.127-11.645 0-20.029-4.192-24.221-9.316-3.726-4.658-0.932-10.713 4.658-11.179 3.261 0 6.987-0.932 9.782 0.932 0.466-1.863 2.329-4.192 4.657-4.192M157.904 16.215l0.932 0.466c4.658 0.932 6.987 7.453 12.11 5.124 0 3.261 0.466 6.521-0.466 8.85-1.397 3.726-5.59 3.726-8.85 3.726-31.208-1.863-49.374 11.179-68.471 22.358-5.124 3.261-10.713 5.59-14.906 9.782-20.029 18.632-41.921 35.866-47.045 70.335l-4.192 38.195c-0.466 4.192-5.124 8.384-4.192 13.508l3.26 22.824c-3.261-3.261-5.124 0.932-4.192 2.795 0.466 1.397 2.329 6.055 5.124 1.863 3.726 6.987 7.453 20.495 12.576 26.55 15.837 18.632 36.332 35.4 53.101 52.169 4.192-0.932 7.453-0.932 8.384-3.727 1.397 2.795-1.397 5.59-3.726 6.056 7.453 4.658 15.837 8.85 27.016 9.781 14.44 0.932 27.948 3.261 40.524 6.522 6.521-1.863 13.042-2.795 20.029-3.261 2.329 0 3.726-3.726 6.521-4.658l0.466-4.658c2.795 4.192 2.329-1.397 0.466-4.192 3.261 2.795 4.192 5.124 5.589 6.987 0-1.397 3.726-6.521 3.727-0.466l0.931-6.055c1.397-0.932 1.863 5.124 3.261 0.931 1.397-4.192 4.192-0.932 6.987-2.329-0.932 1.863-0.466 5.59 2.794 3.261l3.727-3.261c2.329 5.59 6.055 3.261 7.918 2.329 20.495-13.042 40.99-28.413 60.553-43.784l-0.466 6.055 2.329-7.453c2.329 2.329 4.192 0.466 5.124-0.931 2.795-4.658 6.521-9.316 12.577-13.508-7.453 20.029-16.303 35.866-27.482 48.908l-4.658 5.59c0 3.261-0.932 7.453-4.658 7.918-1.863 0.466-5.59-0.932-8.384 1.863-1.397 1.863 3.261 5.59-0.466 2.795-3.261-2.329-6.521 0-10.248 0.932-2.795 0.932 1.863 3.726 2.795 5.589 0.932 1.863 1.863 3.726 1.398 6.056l-5.124-5.59c-6.055 3.261-9.782 9.316-14.906 13.974-2.329 1.863-1.397 5.124-1.397 7.918-3.261 0-6.987-0.932-8.85 0.932-1.397 1.863-0.932 4.658-0.932 7.453-4.658-0.466-5.124-7.453-9.315-6.056-4.192 0.932-8.85 1.397-12.577 3.727 2.795 5.59-4.658 2.329-3.726 3.26-6.987-4.192-13.042-7.453-20.495-4.658-15.837-5.124-35.4-2.795-49.84-0.931 0-2.329 0.466-4.658-0.466-5.124-0.932 2.329-3.726 1.397-3.26 1.397-8.85-6.055-17.7-9.782-27.016-14.905-8.384 0.932-16.303-3.261-18.632-5.59-6.521-6.055-13.974-2.795-20.029-4.192-13.042-3.261-17.7-16.769-19.098-26.084-0.932-4.658-4.658-6.521-6.055-6.056-6.055-19.563-15.371-37.263-22.824-55.429-1.863-4.658-1.397-9.316-1.397-14.44 2.329 0.932 4.658 0.466 4.192-2.794-2.329-15.371-7.918-27.016-13.974-38.195 3.261-15.837 3.726-34.469 11.179-48.443 6.521-12.576 18.632-19.098 27.016-29.811 2.795-3.726 2.795-8.85 5.59-12.11 9.316-9.316 18.632-19.098 28.879-27.482 4.658-3.726 10.247 0 17.234-1.397 2.329-8.384 11.645-15.837 20.495-13.508 3.726 0.932 11.179-8.85 13.508-9.782 3.726-1.397 1.863 3.726 1.863 6.987 8.85-6.987 20.961-10.713 32.14-14.906" fill="#ffffff" fill-rule="nonzero" stroke="none" stroke-width="1" stroke-linecap="butt" stroke-linejoin="miter" stroke-miterlimit="10" stroke-dasharray="" stroke-dashoffset="0" font-family="none" font-weight="none" font-size="none" text-anchor="none" style="mix-blend-mode: normal" data-fill-palette-color="tertiary"></path></g><g transform="matrix(1,0,0,1,64,127.014653213163)"><svg viewBox="0 0 192 105.970693573674" height="105.970693573674" width="192"><g><svg viewBox="0 0 192 105.970693573674" height="105.970693573674" width="192"><g><svg viewBox="0 0 192 105.970693573674" height="105.970693573674" width="192"><g transform="matrix(1,0,0,1,0,62.97579109386709)"><svg viewBox="0 0 192 42.99490247980691" height="42.99490247980691" width="192"><g id="textblocktransform"><svg viewBox="0 0 192 42.99490247980691" height="42.99490247980691" width="192" id="textblock"><g><svg viewBox="0 0 192 24.374577634754623" height="24.374577634754623" width="192"><g transform="matrix(1,0,0,1,0,0)"><svg width="192" viewBox="4.300000190734863 -38.79999923706055 310.7200012207031 39.45000076293945" height="24.374577634754623" data-palette-color="#ffffff"><path d="M21.25-14.5L21.25-14.5Q22.05-13.5 23.28-11.88 24.5-10.25 25.8-8.28 27.1-6.3 28.38-4.15 29.65-2 30.55 0L30.55 0 25.25 0Q24.25-1.9 23.08-3.85 21.9-5.8 20.7-7.58 19.5-9.35 18.32-10.9 17.15-12.45 16.2-13.6L16.2-13.6Q15.55-13.55 14.88-13.55 14.2-13.55 13.5-13.55L13.5-13.55 9.15-13.55 9.15 0 4.3 0 4.3-34.15Q6.35-34.65 8.88-34.83 11.4-35 13.5-35L13.5-35Q20.8-35 24.63-32.25 28.45-29.5 28.45-24.05L28.45-24.05Q28.45-20.6 26.63-18.15 24.8-15.7 21.25-14.5ZM13.9-30.75L13.9-30.75Q10.8-30.75 9.15-30.6L9.15-30.6 9.15-17.55 12.6-17.55Q15.1-17.55 17.1-17.8 19.1-18.05 20.48-18.75 21.85-19.45 22.6-20.73 23.35-22 23.35-24.1L23.35-24.1Q23.35-26.05 22.6-27.35 21.85-28.65 20.58-29.4 19.3-30.15 17.57-30.45 15.85-30.75 13.9-30.75ZM44.25-3.35L44.25-3.35Q45.9-3.35 47.17-3.43 48.45-3.5 49.3-3.7L49.3-3.7 49.3-11.45Q48.8-11.7 47.67-11.88 46.55-12.05 44.95-12.05L44.95-12.05Q43.9-12.05 42.72-11.9 41.55-11.75 40.57-11.28 39.6-10.8 38.95-9.98 38.3-9.15 38.3-7.8L38.3-7.8Q38.3-5.3 39.9-4.33 41.5-3.35 44.25-3.35ZM43.85-26.65L43.85-26.65Q46.65-26.65 48.57-25.93 50.5-25.2 51.67-23.88 52.85-22.55 53.35-20.73 53.85-18.9 53.85-16.7L53.85-16.7 53.85-0.45Q53.25-0.35 52.17-0.18 51.1 0 49.75 0.15 48.4 0.3 46.82 0.43 45.25 0.55 43.7 0.55L43.7 0.55Q41.5 0.55 39.65 0.1 37.8-0.35 36.45-1.33 35.1-2.3 34.35-3.9 33.6-5.5 33.6-7.75L33.6-7.75Q33.6-9.9 34.47-11.45 35.35-13 36.85-13.95 38.35-14.9 40.35-15.35 42.35-15.8 44.55-15.8L44.55-15.8Q45.25-15.8 46-15.73 46.75-15.65 47.42-15.53 48.1-15.4 48.6-15.3 49.1-15.2 49.3-15.15L49.3-15.15 49.3-16.45Q49.3-17.6 49.05-18.73 48.8-19.85 48.15-20.73 47.5-21.6 46.37-22.13 45.25-22.65 43.45-22.65L43.45-22.65Q41.15-22.65 39.42-22.33 37.7-22 36.85-21.65L36.85-21.65 36.3-25.5Q37.2-25.9 39.3-26.28 41.4-26.65 43.85-26.65ZM66.2 0L61.55 0 61.55-38 66.2-38.8 66.2-25.5Q67.5-26 68.97-26.28 70.45-26.55 71.9-26.55L71.9-26.55Q75-26.55 77.05-25.68 79.09-24.8 80.32-23.23 81.55-21.65 82.05-19.45 82.55-17.25 82.55-14.6L82.55-14.6 82.55 0 77.9 0 77.9-13.6Q77.9-16 77.57-17.7 77.25-19.4 76.5-20.45 75.75-21.5 74.5-21.98 73.25-22.45 71.4-22.45L71.4-22.45Q70.65-22.45 69.84-22.35 69.05-22.25 68.32-22.13 67.59-22 67.02-21.85 66.45-21.7 66.2-21.6L66.2-21.6 66.2 0ZM110.79-26L110.79-0.75Q109.19-0.35 106.57 0.1 103.94 0.55 100.49 0.55L100.49 0.55Q97.49 0.55 95.44-0.33 93.39-1.2 92.14-2.8 90.89-4.4 90.34-6.58 89.79-8.75 89.79-11.4L89.79-11.4 89.79-26 94.44-26 94.44-12.4Q94.44-7.65 95.94-5.6 97.44-3.55 100.99-3.55L100.99-3.55Q101.74-3.55 102.54-3.6 103.34-3.65 104.04-3.73 104.74-3.8 105.32-3.88 105.89-3.95 106.14-4.05L106.14-4.05 106.14-26 110.79-26ZM127.24-3.4L126.59 0.5Q122.29 0.4 120.49-1.35 118.69-3.1 118.69-6.8L118.69-6.8 118.69-38 123.34-38.8 123.34-7.55Q123.34-6.4 123.54-5.65 123.74-4.9 124.19-4.45 124.64-4 125.39-3.78 126.14-3.55 127.24-3.4L127.24-3.4ZM153.64 0.3L153.64 0.3Q152.59 0.3 151.36 0.25 150.14 0.2 148.91 0.1 147.69 0 146.49-0.15 145.29-0.3 144.29-0.55L144.29-0.55 144.29-34.15Q145.29-34.4 146.49-34.55 147.69-34.7 148.91-34.8 150.14-34.9 151.34-34.95 152.54-35 153.59-35L153.59-35Q156.59-35 159.21-34.55 161.84-34.1 163.76-33.02 165.69-31.95 166.79-30.2 167.89-28.45 167.89-25.9L167.89-25.9Q167.89-23.05 166.54-21.23 165.19-19.4 162.94-18.5L162.94-18.5Q165.99-17.6 167.79-15.65 169.59-13.7 169.59-10.15L169.59-10.15Q169.59-4.95 165.76-2.33 161.94 0.3 153.64 0.3ZM155.34-16.15L149.09-16.15 149.09-3.95Q149.64-3.9 150.39-3.85L150.39-3.85Q151.04-3.8 151.91-3.78 152.79-3.75 153.94-3.75L153.94-3.75Q156.09-3.75 158.01-4.03 159.94-4.3 161.39-5 162.84-5.7 163.71-6.95 164.59-8.2 164.59-10.1L164.59-10.1Q164.59-11.8 163.94-12.98 163.29-14.15 162.06-14.85 160.84-15.55 159.14-15.85 157.44-16.15 155.34-16.15L155.34-16.15ZM149.09-30.75L149.09-20.05 154.19-20.05Q155.99-20.05 157.59-20.3 159.19-20.55 160.36-21.2 161.54-21.85 162.21-22.9 162.89-23.95 162.89-25.55L162.89-25.55Q162.89-27.05 162.19-28.08 161.49-29.1 160.26-29.73 159.04-30.35 157.39-30.65 155.74-30.95 153.89-30.95L153.89-30.95Q152.04-30.95 150.99-30.9 149.94-30.85 149.09-30.75L149.09-30.75ZM184.93-3.35L184.93-3.35Q186.58-3.35 187.86-3.43 189.13-3.5 189.98-3.7L189.98-3.7 189.98-11.45Q189.48-11.7 188.36-11.88 187.23-12.05 185.63-12.05L185.63-12.05Q184.58-12.05 183.41-11.9 182.23-11.75 181.26-11.28 180.28-10.8 179.63-9.98 178.98-9.15 178.98-7.8L178.98-7.8Q178.98-5.3 180.58-4.33 182.18-3.35 184.93-3.35ZM184.53-26.65L184.53-26.65Q187.33-26.65 189.26-25.93 191.18-25.2 192.36-23.88 193.53-22.55 194.03-20.73 194.53-18.9 194.53-16.7L194.53-16.7 194.53-0.45Q193.93-0.35 192.86-0.18 191.78 0 190.43 0.15 189.08 0.3 187.51 0.43 185.93 0.55 184.38 0.55L184.38 0.55Q182.18 0.55 180.33 0.1 178.48-0.35 177.13-1.33 175.78-2.3 175.03-3.9 174.28-5.5 174.28-7.75L174.28-7.75Q174.28-9.9 175.16-11.45 176.03-13 177.53-13.95 179.03-14.9 181.03-15.35 183.03-15.8 185.23-15.8L185.23-15.8Q185.93-15.8 186.68-15.73 187.43-15.65 188.11-15.53 188.78-15.4 189.28-15.3 189.78-15.2 189.98-15.15L189.98-15.15 189.98-16.45Q189.98-17.6 189.73-18.73 189.48-19.85 188.83-20.73 188.18-21.6 187.06-22.13 185.93-22.65 184.13-22.65L184.13-22.65Q181.83-22.65 180.11-22.33 178.38-22 177.53-21.65L177.53-21.65 176.98-25.5Q177.88-25.9 179.98-26.28 182.08-26.65 184.53-26.65ZM211.83-26.55L211.83-26.55Q212.43-26.55 213.21-26.48 213.98-26.4 214.73-26.28 215.48-26.15 216.11-26.03 216.73-25.9 217.03-25.8L217.03-25.8 216.23-21.75Q215.68-21.95 214.41-22.23 213.13-22.5 211.13-22.5L211.13-22.5Q209.83-22.5 208.56-22.23 207.28-21.95 206.88-21.85L206.88-21.85 206.88 0 202.23 0 202.23-24.9Q203.88-25.5 206.33-26.03 208.78-26.55 211.83-26.55ZM230.33-3.35L230.33-3.35Q231.98-3.35 233.25-3.43 234.53-3.5 235.38-3.7L235.38-3.7 235.38-11.45Q234.88-11.7 233.75-11.88 232.63-12.05 231.03-12.05L231.03-12.05Q229.98-12.05 228.8-11.9 227.63-11.75 226.65-11.28 225.68-10.8 225.03-9.98 224.38-9.15 224.38-7.8L224.38-7.8Q224.38-5.3 225.98-4.33 227.58-3.35 230.33-3.35ZM229.93-26.65L229.93-26.65Q232.73-26.65 234.65-25.93 236.58-25.2 237.75-23.88 238.93-22.55 239.43-20.73 239.93-18.9 239.93-16.7L239.93-16.7 239.93-0.45Q239.33-0.35 238.25-0.18 237.18 0 235.83 0.15 234.48 0.3 232.9 0.43 231.33 0.55 229.78 0.55L229.78 0.55Q227.58 0.55 225.73 0.1 223.88-0.35 222.53-1.33 221.18-2.3 220.43-3.9 219.68-5.5 219.68-7.75L219.68-7.75Q219.68-9.9 220.55-11.45 221.43-13 222.93-13.95 224.43-14.9 226.43-15.35 228.43-15.8 230.63-15.8L230.63-15.8Q231.33-15.8 232.08-15.73 232.83-15.65 233.5-15.53 234.18-15.4 234.68-15.3 235.18-15.2 235.38-15.15L235.38-15.15 235.38-16.45Q235.38-17.6 235.13-18.73 234.88-19.85 234.23-20.73 233.58-21.6 232.45-22.13 231.33-22.65 229.53-22.65L229.53-22.65Q227.23-22.65 225.5-22.33 223.78-22 222.93-21.65L222.93-21.65 222.38-25.5Q223.28-25.9 225.38-26.28 227.48-26.65 229.93-26.65ZM264.43-4.05L264.43-20.5Q263.58-21.2 261.98-21.85 260.38-22.5 258.48-22.5L258.48-22.5Q256.48-22.5 255.05-21.78 253.63-21.05 252.73-19.78 251.83-18.5 251.43-16.75 251.03-15 251.03-13L251.03-13Q251.03-8.45 253.28-5.98 255.53-3.5 259.28-3.5L259.28-3.5Q261.18-3.5 262.45-3.68 263.73-3.85 264.43-4.05L264.43-4.05ZM264.43-24.85L264.43-38 269.08-38.8 269.08-0.75Q267.48-0.3 264.98 0.15 262.48 0.6 259.23 0.6L259.23 0.6Q256.23 0.6 253.83-0.35 251.43-1.3 249.73-3.05 248.03-4.8 247.1-7.33 246.18-9.85 246.18-13L246.18-13Q246.18-16 246.95-18.5 247.73-21 249.23-22.8 250.73-24.6 252.9-25.6 255.08-26.6 257.88-26.6L257.88-26.6Q260.13-26.6 261.85-26 263.58-25.4 264.43-24.85L264.43-24.85ZM300.02-13L300.02-13Q300.02-9.9 299.12-7.4 298.22-4.9 296.6-3.1 294.97-1.3 292.72-0.33 290.47 0.65 287.82 0.65L287.82 0.65Q285.17 0.65 282.92-0.33 280.67-1.3 279.05-3.1 277.42-4.9 276.52-7.4 275.62-9.9 275.62-13L275.62-13Q275.62-16.05 276.52-18.57 277.42-21.1 279.05-22.9 280.67-24.7 282.92-25.68 285.17-26.65 287.82-26.65L287.82-26.65Q290.47-26.65 292.72-25.68 294.97-24.7 296.6-22.9 298.22-21.1 299.12-18.57 300.02-16.05 300.02-13ZM295.17-13L295.17-13Q295.17-17.4 293.2-19.98 291.22-22.55 287.82-22.55L287.82-22.55Q284.42-22.55 282.45-19.98 280.47-17.4 280.47-13L280.47-13Q280.47-8.6 282.45-6.03 284.42-3.45 287.82-3.45L287.82-3.45Q291.22-3.45 293.2-6.03 295.17-8.6 295.17-13ZM315.02-3.4L314.37 0.5Q310.07 0.4 308.27-1.35 306.47-3.1 306.47-6.8L306.47-6.8 306.47-38 311.12-38.8 311.12-7.55Q311.12-6.4 311.32-5.65 311.52-4.9 311.97-4.45 312.42-4 313.17-3.78 313.92-3.55 315.02-3.4L315.02-3.4Z" opacity="1" transform="matrix(1,0,0,1,0,0)" fill="#ffffff" class="wordmark-text-0" data-fill-palette-color="primary" id="text-0"></path></svg></g></svg></g><g transform="matrix(1,0,0,1,0,27.931413501528557)"><svg viewBox="0 0 192 15.063488978278357" height="15.063488978278357" width="192"><g transform="matrix(1,0,0,1,0,0)"><svg width="192" viewBox="0.6500000357627869 -35 597.7899780273438 46.900001525878906" height="15.063488978278357" data-palette-color="#ffffff"><path d="M32.95-34.95L36.9-34.95 28.6 0 24.25 0 19.15-20.3 12.9 0 8.8 0 0.65-34.95 4.95-34.95 11.05-4.25 17.7-25.5 20.5-25.5 26.65-4.25 32.95-34.95ZM83.22-11.7L83.22-11.7 67.27-11.7Q67.27-6.9 69.54-4.9 71.82-2.9 75.27-2.9L75.27-2.9Q77.02-2.9 77.72-3.08 78.42-3.25 79.04-3.43 79.67-3.6 79.92-3.7L79.92-3.7Q81.17-4.05 82.07-4.35L82.07-4.35 82.67-1.45Q77.67 0.3 74.87 0.3L74.87 0.3Q69.72 0.3 66.62-2.83 63.52-5.95 63.52-12.23 63.52-18.5 66.44-22 69.37-25.5 73.84-25.5 78.32-25.5 80.82-22.6 83.32-19.7 83.32-14.75L83.32-14.75Q83.32-13.4 83.22-11.7ZM67.52-14.55L67.52-14.55 79.72-14.55Q79.72-18.25 78.42-20.25 77.12-22.25 73.89-22.25 70.67-22.25 69.17-20.1 67.67-17.95 67.52-14.55ZM114.09 0L114.09-35 117.84-35 117.84-22.5Q122.14-25.55 125.54-25.55L125.54-25.55Q134.54-25.55 134.54-12.6L134.54-12.6Q134.54-5.25 131.34-2.3L131.34-2.3Q128.49 0.3 124.64 0.3L124.64 0.3Q122.69 0.3 120.69-0.58 118.69-1.45 117.39-2.45L117.39-2.45 116.29 0 114.09 0ZM117.84-18.95L117.84-18.95 117.84-5.35Q118.84-4.2 120.51-3.55 122.19-2.9 123.79-2.9L123.79-2.9Q127.69-2.9 129.24-5.2 130.79-7.5 130.79-12.4 130.79-17.3 129.24-19.8 127.69-22.3 125.29-22.3L125.29-22.3Q121.69-22.3 117.84-18.95ZM226.73-18.75L226.73-18.75Q226.73-10.3 221.83-5.15 216.93 0 208.73 0L208.73 0 201.43 0 201.43-35 210.28-35Q217.73-35 222.23-30.45 226.73-25.9 226.73-18.75ZM222.68-19.15L222.68-19.15Q222.68-25.05 219.08-28.4 215.48-31.75 210.48-31.75L210.48-31.75 205.48-31.75 205.48-3.25 209.18-3.25Q214.83-3.25 218.75-7.5 222.68-11.75 222.68-19.15ZM274.9-11.7L274.9-11.7 258.95-11.7Q258.95-6.9 261.22-4.9 263.5-2.9 266.95-2.9L266.95-2.9Q268.7-2.9 269.4-3.08 270.1-3.25 270.72-3.43 271.35-3.6 271.6-3.7L271.6-3.7Q272.85-4.05 273.75-4.35L273.75-4.35 274.35-1.45Q269.35 0.3 266.55 0.3L266.55 0.3Q261.4 0.3 258.3-2.83 255.2-5.95 255.2-12.23 255.2-18.5 258.12-22 261.05-25.5 265.52-25.5 270-25.5 272.5-22.6 275-19.7 275-14.75L275-14.75Q275-13.4 274.9-11.7ZM259.2-14.55L259.2-14.55 271.4-14.55Q271.4-18.25 270.1-20.25 268.8-22.25 265.57-22.25 262.35-22.25 260.85-20.1 259.35-17.95 259.2-14.55ZM318.77-25.05L322.92-25.05 314.47 0 310.17 0 301.77-25.05 306.02-25.05 312.37-4 318.77-25.05ZM369.14-11.7L369.14-11.7 353.19-11.7Q353.19-6.9 355.46-4.9 357.74-2.9 361.19-2.9L361.19-2.9Q362.94-2.9 363.64-3.08 364.34-3.25 364.96-3.43 365.59-3.6 365.84-3.7L365.84-3.7Q367.09-4.05 367.99-4.35L367.99-4.35 368.59-1.45Q363.59 0.3 360.79 0.3L360.79 0.3Q355.64 0.3 352.54-2.83 349.44-5.95 349.44-12.23 349.44-18.5 352.36-22 355.29-25.5 359.76-25.5 364.24-25.5 366.74-22.6 369.24-19.7 369.24-14.75L369.24-14.75Q369.24-13.4 369.14-11.7ZM353.44-14.55L353.44-14.55 365.64-14.55Q365.64-18.25 364.34-20.25 363.04-22.25 359.81-22.25 356.59-22.25 355.09-20.1 353.59-17.95 353.44-14.55ZM403.76 0L400.01 0 400.01-35 403.76-35 403.76 0ZM452.08-12.33Q452.08-17.15 450.18-19.7 448.28-22.25 444.63-22.25 440.98-22.25 439.45-19.83 437.93-17.4 437.93-12.4L437.93-12.4Q437.93-2.95 444.88-2.95L444.88-2.95Q448.53-2.95 450.3-5.23 452.08-7.5 452.08-12.33ZM452.98-3.1Q450.13 0.3 444.93 0.3 439.73 0.3 436.95-3.08 434.18-6.45 434.18-12.53 434.18-18.6 436.85-22.05 439.53-25.5 444.7-25.5 449.88-25.5 452.85-22 455.83-18.5 455.83-12.5 455.83-6.5 452.98-3.1ZM490.05-2.05L490.05 11.9 486.3 11.9 486.3-24.95 488.5-24.95 489.8-22.15Q491.9-23.75 493.72-24.63 495.55-25.5 497.75-25.5L497.75-25.5Q506.75-25.5 506.75-12.55L506.75-12.55Q506.75-5.2 503.55-2.3L503.55-2.3Q500.7 0.35 497.07 0.35 493.45 0.35 490.05-2.05L490.05-2.05ZM490.05-18.8L490.05-18.8 490.05-5.45Q491.05-4.25 492.75-3.55 494.45-2.85 496-2.85L496-2.85Q499.9-2.85 501.45-5.15 503-7.45 503-12.35 503-17.25 501.45-19.75 499.9-22.25 497.5-22.25L497.5-22.25Q495.9-22.25 494.32-21.6 492.75-20.95 491.97-20.38 491.2-19.8 490.05-18.8ZM554.72-11.7L554.72-11.7 538.77-11.7Q538.77-6.9 541.04-4.9 543.32-2.9 546.77-2.9L546.77-2.9Q548.52-2.9 549.22-3.08 549.92-3.25 550.54-3.43 551.17-3.6 551.42-3.7L551.42-3.7Q552.67-4.05 553.57-4.35L553.57-4.35 554.17-1.45Q549.17 0.3 546.37 0.3L546.37 0.3Q541.22 0.3 538.12-2.83 535.02-5.95 535.02-12.23 535.02-18.5 537.94-22 540.87-25.5 545.34-25.5 549.82-25.5 552.32-22.6 554.82-19.7 554.82-14.75L554.82-14.75Q554.82-13.4 554.72-11.7ZM539.02-14.55L539.02-14.55 551.22-14.55Q551.22-18.25 549.92-20.25 548.62-22.25 545.39-22.25 542.17-22.25 540.67-20.1 539.17-17.95 539.02-14.55ZM589.34-19.1L589.34-19.1 589.34 0 585.59 0 585.59-25 587.99-25 588.59-22.05Q590.99-23.95 592.59-24.73 594.19-25.5 596.24-25.5L596.24-25.5Q597.24-25.5 597.74-25.4L597.74-25.4 598.44-25.2 597.84-21.75Q596.94-22.05 595.39-22.05L595.39-22.05Q592.39-22.05 589.34-19.1Z" opacity="1" transform="matrix(1,0,0,1,0,0)" fill="#ffffff" class="slogan-text-1" data-fill-palette-color="secondary" id="text-1"></path></svg></g></svg></g></svg></g></svg></g><g transform="matrix(1,0,0,1,66.29052238645342,0)"><svg viewBox="0 0 59.41895522709316 59.41895522709316" height="59.41895522709316" width="59.41895522709316"><g><svg xmlns="http://www.w3.org/2000/svg" xmlns:xlink="http://www.w3.org/1999/xlink" version="1.1" x="0" y="0" viewBox="5 5 90 90" enable-background="new 0 0 100 100" xml:space="preserve" height="59.41895522709316" width="59.41895522709316" class="icon-icon-0" data-fill-palette-color="accent" id="icon-0"><path fill="#ffffff" d="M95 52c0-12.871-5.692-24.431-14.682-32.318C72.431 10.692 60.871 5 48 5 24.29 5 5 24.29 5 48c0 12.868 5.69 24.426 14.677 32.313C27.564 89.306 39.126 95 52 95c0.084 0 0.166-0.006 0.25-0.006S52.416 95 52.5 95C75.972 95 95 75.972 95 52.5c0-0.084-0.006-0.166-0.006-0.25S95 52.084 95 52zM21.828 73.371c-4.245-5.978-6.77-13.259-6.822-21.121 0.135-20.511 16.732-37.109 37.244-37.244 7.862 0.052 15.144 2.577 21.121 6.822C80.224 28.473 84.5 37.758 84.5 48c0 20.126-16.374 36.5-36.5 36.5C37.758 84.5 28.473 80.224 21.828 73.371zM6 48C6 24.841 24.841 6 48 6c9.858 0 18.926 3.422 26.1 9.13C67.637 11.242 60.076 9 52 9 28.29 9 9 28.29 9 52c0 8.074 2.241 15.633 6.127 22.095C9.421 66.923 6 57.856 6 48zM52 89c-10.08 0-19.227-4.055-25.905-10.615C32.269 82.854 39.838 85.5 48 85.5c20.678 0 37.5-16.822 37.5-37.5 0-8.162-2.646-15.731-7.115-21.905C84.945 32.773 89 41.92 89 52 89 72.402 72.402 89 52 89z" data-fill-palette-color="accent"></path></svg></g></svg></g><g></g></svg></g></svg></g></svg></g></svg></g><defs></defs></svg><rect width="320" height="360" fill="none" stroke="none" visibility="hidden"></rect></g></svg></g></svg>