<svg xmlns="http://www.w3.org/2000/svg" version="1.1" xmlns:xlink="http://www.w3.org/1999/xlink" xmlns:svgjs="http://svgjs.dev/svgjs" width="1000" height="1000" viewBox="0 0 1000 1000"><rect width="1000" height="1000" fill="#000000"></rect><g transform="matrix(0.7,0,0,0.7,149.57575757575756,282.1265587044535)"><svg viewBox="0 0 396 247" data-background-color="#ffffff" preserveAspectRatio="xMidYMid meet" height="623" width="1000" xmlns="http://www.w3.org/2000/svg" xmlns:xlink="http://www.w3.org/1999/xlink"><g id="tight-bounds" transform="matrix(1,0,0,1,0.2400000000000091,-0.09999999999999432)"><svg viewBox="0 0 395.52 247.2" height="247.2" width="395.52"><g><svg></svg></g><g><svg viewBox="0 0 395.52 247.2" height="247.2" width="395.52"><mask id="4b57ef58-7722-4bf7-99e2-1eeda2b4cfdd"><rect width="395.52" height="247.2" fill="white"></rect><g transform="matrix(1,0,0,1,129.62966763005778,37.08)" id="clone"><svg viewBox="0 0 136.2606647398844 173.04" height="173.04" width="136.2606647398844"><g><svg viewBox="0 0 136.2606647398844 173.04" height="173.04" width="136.2606647398844"><g><svg viewBox="0 0 136.2606647398844 173.04" height="173.04" width="136.2606647398844"><g><svg viewBox="0 0 136.2606647398844 173.04" height="173.04" width="136.2606647398844"><g id="SvgjsG1076"><svg viewBox="0 0 136.2606647398844 173.04" height="173.04" width="136.2606647398844" id="SvgjsSvg1075"><g><svg viewBox="0 0 136.2606647398844 173.04" height="173.04" width="136.2606647398844"><g transform="matrix(1,0,0,1,0,0)"><svg width="136.2606647398844" viewBox="0.559999942779541 -38.54999923706055 32.93000030517578 41.54999923706055" height="173.04" data-palette-color="#77d4fc"><path d="M3.56-35.55L16.19-35.55Q20.26-35.55 23.14-34.33 26.03-33.11 27.55-30.71 29.08-28.32 29.08-24.83L29.08-24.83Q29.08-22.14 28.1-20.12 27.12-18.09 25.33-16.71 23.54-15.33 21.09-14.58L21.09-14.58 19.19-13.6 7.93-13.6 7.89-18.65 16.24-18.65Q18.41-18.65 19.86-19.41 21.31-20.17 22.03-21.48 22.75-22.8 22.75-24.49L22.75-24.49Q22.75-27.22 21.18-28.85 19.6-30.47 16.19-30.47L16.19-30.47 9.86-30.47 9.86 0 3.56 0 3.56-35.55ZM23.75 0L15.45-15.94 22.07-15.97 30.49-0.32 30.49 0 23.75 0Z" opacity="1" transform="matrix(1,0,0,1,0,0)" fill="black" class="wordmark-text-0" id="SvgjsPath1074" stroke-width="5" stroke="black" stroke-linejoin="round"></path></svg></g></svg></g></svg></g></svg></g><g></g></svg></g></svg></g></svg></g></mask><g mask="url(#4b57ef58-7722-4bf7-99e2-1eeda2b4cfdd)"><g><path xmlns="http://www.w3.org/2000/svg" d="M129.896 34.013h63.656c13.675 0 25.351 2.05 35.028 6.149 9.71 4.099 17.119 10.181 22.227 18.245 5.141 8.03 7.711 17.909 7.711 29.635v0c0 9.038-1.646 16.951-4.939 23.739-3.293 6.821-7.946 12.55-13.961 17.187-6.014 4.637-13.138 8.215-21.37 10.735v0l-9.576 4.939h-56.751l-0.202-25.452h42.085c7.291 0 13.373-1.277 18.245-3.83 4.872-2.554 8.518-6.031 10.936-10.433 2.419-4.435 3.629-9.492 3.629-15.171v0c0-9.173-2.638-16.498-7.913-21.975-5.309-5.443-13.692-8.165-25.149-8.164v0h-31.904v153.57h-31.752zM231.654 213.187l-41.832-80.339 33.365-0.151 42.437 78.877v1.613z" fill="#ffffff" fill-rule="nonzero" stroke="none" stroke-width="1" stroke-linecap="butt" stroke-linejoin="miter" stroke-miterlimit="10" stroke-dasharray="" stroke-dashoffset="0" font-family="none" font-weight="none" font-size="none" text-anchor="none" style="mix-blend-mode: normal" data-fill-palette-color="tertiary"></path></g></g><g transform="matrix(1,0,0,1,129.62966763005778,37.08)"><svg viewBox="0 0 136.2606647398844 173.04" height="173.04" width="136.2606647398844"><g><svg viewBox="0 0 136.2606647398844 173.04" height="173.04" width="136.2606647398844"><g><svg viewBox="0 0 136.2606647398844 173.04" height="173.04" width="136.2606647398844"><g><svg viewBox="0 0 136.2606647398844 173.04" height="173.04" width="136.2606647398844"><g id="textblocktransform"><svg viewBox="0 0 136.2606647398844 173.04" height="173.04" width="136.2606647398844" id="textblock"><g><svg viewBox="0 0 136.2606647398844 173.04" height="173.04" width="136.2606647398844"><g transform="matrix(1,0,0,1,0,0)"><svg width="136.2606647398844" viewBox="0.559999942779541 -38.54999923706055 32.93000030517578 41.54999923706055" height="173.04" data-palette-color="#77d4fc"><path d="M3.56-35.55L16.19-35.55Q20.26-35.55 23.14-34.33 26.03-33.11 27.55-30.71 29.08-28.32 29.08-24.83L29.08-24.83Q29.08-22.14 28.1-20.12 27.12-18.09 25.33-16.71 23.54-15.33 21.09-14.58L21.09-14.58 19.19-13.6 7.93-13.6 7.89-18.65 16.24-18.65Q18.41-18.65 19.86-19.41 21.31-20.17 22.03-21.48 22.75-22.8 22.75-24.49L22.75-24.49Q22.75-27.22 21.18-28.85 19.6-30.47 16.19-30.47L16.19-30.47 9.86-30.47 9.86 0 3.56 0 3.56-35.55ZM23.75 0L15.45-15.94 22.07-15.97 30.49-0.32 30.49 0 23.75 0Z" opacity="1" transform="matrix(1,0,0,1,0,0)" fill="#ffffff" class="wordmark-text-0" data-fill-palette-color="primary" id="text-0"></path></svg></g></svg></g></svg></g></svg></g><g></g></svg></g></svg></g></svg></g></svg></g><defs></defs></svg><rect width="395.52" height="247.2" fill="none" stroke="none" visibility="hidden"></rect></g></svg></g></svg>